<svg xmlns="http://www.w3.org/2000/svg" width="386" height="419" viewBox="0 0 386 419">
<g>
<path d="M 0.00 0.00 L 386.00 0.00 L 386.00 419.00 L 0.00 419.00 ZM 158.50 401.05 L 158.75 401.12 C168.43,403.63 170.95,404.29 171.88,403.35 C172.21,403.02 172.34,402.48 172.53,401.75 C172.84,400.51 172.96,342.79 172.80,273.50 L 172.50 147.50 L 170.21 141.83 C167.90,136.12 162.09,128.19 147.86,111.30 C143.24,105.83 140.50,102.92 138.86,99.48 C136.45,94.44 136.39,88.27 136.24,71.22 C136.23,69.27 136.21,67.18 136.19,64.93 L 135.87 34.36 L 140.06 30.17 C144.05,26.19 144.23,25.74 143.79,21.14 C143.20,15.04 140.65,11.50 135.33,9.42 C128.88,6.90 122.75,9.65 119.12,16.68 C116.71,21.36 118.58,27.95 123.39,31.74 L 125.83 33.65 L 126.16 65.08 L 126.50 96.50 L 129.13 102.00 C130.58,105.03 137.22,114.03 143.89,122.00 C158.12,139.02 160.65,143.14 161.99,151.37 C162.58,155.02 162.97,185.22 162.96,226.00 L 162.93 294.50 L 159.76 290.50 C155.06,284.57 148.60,278.44 141.66,273.33 L 135.50 268.80 L 134.50 178.50 L 131.37 172.00 C129.50,168.12 123.12,159.27 115.53,150.04 C108.54,141.53 101.85,132.76 100.66,130.54 C98.60,126.69 98.48,125.02 98.17,95.84 C97.85,65.24 97.85,65.18 99.99,64.50 C103.07,63.53 105.99,58.16 105.99,53.50 C105.99,48.66 102.95,43.31 99.43,41.98 C94.99,40.28 88.52,40.81 85.61,43.09 C78.39,48.77 78.33,58.18 85.48,63.81 L 88.00 65.79 L 88.05 90.64 C88.12,119.72 88.92,129.14 91.85,135.19 C93.03,137.62 99.61,146.34 106.48,154.56 C113.35,162.78 120.22,171.98 121.74,175.00 L 124.50 180.50 L 124.80 221.85 C124.97,244.59 124.74,263.02 124.30,262.81 C118.39,259.90 111.49,257.01 102.00,253.47 L 90.50 249.17 L 89.96 228.83 C89.31,204.42 89.33,204.48 76.17,188.50 C59.73,168.54 55.83,163.19 54.93,159.31 C54.45,157.22 54.04,142.51 54.02,126.64 L 54.00 97.79 L 56.52 95.81 C63.67,90.18 63.61,80.77 56.39,75.09 C53.45,72.78 46.71,72.27 42.78,74.05 C39.17,75.70 36.00,81.09 36.00,85.56 C36.01,90.08 38.93,95.53 41.86,96.45 C43.79,97.07 43.86,98.13 44.18,129.29 C44.20,131.67 44.22,133.89 44.23,135.96 C44.37,152.49 44.42,159.76 46.98,166.02 C49.31,171.72 53.72,176.58 62.15,186.83 C79.72,208.17 79.43,207.48 79.81,228.75 C79.99,238.24 79.76,246.00 79.31,245.99 C78.87,245.98 76.43,245.35 73.90,244.58 C69.80,243.34 13.00,230.00 11.79,230.00 C10.67,230.00 10.07,276.99 10.98,294.00 C13.11,333.72 20.21,349.00 42.62,362.11 C61.09,372.91 98.34,385.42 158.50,401.05 ZM 203.72 403.39 C203.83,403.49 203.92,403.59 204.03,403.67 C204.80,404.23 206.25,403.86 218.85,400.64 L 219.10 400.57 C245.87,393.73 288.85,381.13 302.50,376.12 C345.76,360.25 359.52,346.03 364.04,312.50 C365.25,303.49 366.64,230.00 365.59,230.00 C365.22,230.00 358.30,231.83 350.21,234.06 C342.12,236.30 330.33,239.47 324.00,241.12 C317.67,242.77 309.35,244.99 305.50,246.06 C301.65,247.13 297.90,248.00 297.17,248.00 C296.10,248.00 295.91,244.32 296.17,229.16 L 296.50 210.32 L 299.62 205.30 C301.34,202.54 307.66,194.26 313.67,186.89 C322.21,176.42 326.78,171.18 329.22,165.09 C332.03,158.09 332.02,149.96 332.00,131.43 C332.00,129.82 332.00,128.13 332.00,126.36 C332.00,97.69 332.04,97.12 334.07,96.48 C337.19,95.49 339.99,90.12 340.00,85.13 C340.00,81.37 339.45,80.21 335.99,76.76 C332.16,72.93 331.76,72.77 326.93,73.23 C322.93,73.62 321.17,74.41 318.44,77.05 C315.55,79.86 315.00,81.09 315.00,84.76 C315.00,89.92 316.22,92.68 319.84,95.74 L 322.50 97.98 L 322.42 128.24 C322.41,130.64 322.41,132.85 322.41,134.91 C322.40,150.31 322.40,156.79 320.09,162.31 C318.10,167.06 314.41,171.10 307.54,179.50 C294.61,195.31 289.35,203.03 287.85,208.41 C287.23,210.66 286.44,221.23 286.11,231.89 C285.61,247.69 285.22,251.43 284.00,252.06 C283.17,252.49 276.20,255.07 268.50,257.80 C260.80,260.53 253.69,263.10 252.70,263.51 C250.98,264.22 250.91,262.36 251.20,221.88 L 251.50 179.50 L 254.29 174.48 C255.82,171.71 262.52,162.94 269.17,154.98 C276.72,145.94 282.42,138.07 284.33,134.04 L 287.39 127.57 L 288.25 65.19 L 291.04 63.13 C297.16,58.60 297.09,48.78 290.91,43.57 C286.57,39.92 278.46,39.90 274.14,43.53 C267.55,49.08 267.80,58.46 274.67,63.70 L 278.28 66.45 L 277.78 96.48 C277.32,124.42 277.14,126.79 275.21,130.51 C274.06,132.70 267.73,141.02 261.12,149.00 C246.93,166.16 243.38,171.70 242.02,178.91 C241.43,182.02 241.00,202.05 241.00,226.54 L 241.00 268.81 L 235.75 271.79 C228.55,275.88 220.59,282.53 217.39,287.15 C215.93,289.27 214.32,291.00 213.82,291.00 C213.28,291.00 213.03,261.96 213.21,219.75 C213.49,149.73 213.54,148.42 215.60,144.00 C216.76,141.52 222.84,133.26 229.10,125.64 C235.37,118.02 241.75,110.05 243.28,107.92 C249.08,99.89 249.33,98.17 249.77,64.61 L 250.18 33.72 L 253.07 31.29 C256.36,28.52 258.57,22.40 257.63,18.67 C256.66,14.80 252.32,10.26 248.34,8.95 C243.83,7.46 238.39,8.89 235.05,12.45 C231.61,16.11 231.07,23.76 233.93,28.38 C235.12,30.32 237.01,32.19 238.13,32.54 C240.11,33.17 240.14,33.79 239.83,63.84 C239.54,90.83 239.29,94.92 237.72,98.00 C236.75,99.93 230.06,108.70 222.87,117.50 C215.68,126.30 208.72,135.62 207.40,138.21 C206.08,140.81 204.54,146.18 203.98,150.15 C202.87,157.95 202.62,402.29 203.72,403.39 ZM 179.00 73.92 C181.48,75.04 185.30,75.96 187.50,75.96 C195.21,75.96 204.31,70.19 207.96,63.00 C210.82,57.34 211.28,52.49 209.53,46.45 C206.52,36.10 198.50,30.06 187.72,30.02 C174.10,29.97 164.61,39.25 164.70,52.54 C164.77,62.36 169.68,69.70 179.00,73.92 ZM 191.15 66.97 C190.88,67.05 190.63,67.12 190.39,67.19 C188.78,67.64 187.95,67.87 187.13,67.85 C186.12,67.83 185.12,67.42 182.74,66.57 C175.75,64.08 173.00,60.00 173.00,52.13 C173.00,48.18 173.56,46.49 175.70,43.94 C185.14,32.72 201.98,38.68 202.00,53.25 C202.00,57.30 201.47,58.58 198.40,61.98 C196.30,64.30 193.28,66.38 191.15,66.97 ZM 331.37 90.93 C327.75,93.77 325.62,93.53 322.59,89.92 C319.46,86.20 319.39,85.05 322.07,81.63 C324.59,78.44 329.81,78.03 332.35,80.83 C334.93,83.68 334.46,88.49 331.37,90.93 ZM 97.96 57.81 C95.10,60.88 90.68,60.68 88.07,57.37 C85.68,54.32 85.59,53.65 87.15,50.68 C88.67,47.80 89.94,47.03 93.25,47.02 C99.07,46.98 101.93,53.55 97.96,57.81 ZM 135.96 25.81 C133.10,28.88 128.68,28.68 126.07,25.37 C123.68,22.32 123.59,21.65 125.15,18.68 C126.66,15.81 127.94,15.03 131.21,15.02 C134.39,15.00 138.00,18.45 138.00,21.50 C138.00,22.67 137.08,24.61 135.96,25.81 ZM 53.93 89.37 C50.10,94.22 42.00,91.60 42.00,85.50 C42.00,79.40 50.10,76.78 53.93,81.63 C56.52,84.93 56.52,86.07 53.93,89.37 ZM 249.25 26.25 C245.74,30.18 238.00,26.91 238.00,21.50 C238.00,16.17 245.71,12.85 249.43,16.57 C251.89,19.03 251.81,23.39 249.25,26.25 ZM 286.78 58.44 C280.02,63.18 272.22,54.78 278.00,49.00 C282.15,44.85 289.00,47.66 289.00,53.50 C289.00,55.87 288.33,57.36 286.78,58.44 Z" fill="rgb(24,9,38)"/>
<path d="M 294.61 236.75 C295.18,247.04 295.55,249.00 296.90,249.00 C299.12,249.01 313.13,244.80 312.61,244.28 C312.57,244.23 312.41,244.23 312.15,244.25 C315.92,243.24 320.30,242.08 324.00,241.12 C330.33,239.47 342.12,236.30 350.21,234.06 C358.30,231.83 365.22,230.00 365.59,230.00 C366.64,230.00 365.25,303.49 364.04,312.50 C359.52,346.03 345.76,360.25 302.50,376.12 C301.19,376.61 299.60,377.16 297.78,377.77 C299.81,377.03 300.88,376.55 300.73,376.39 C300.51,376.17 297.71,376.90 294.51,378.00 C291.31,379.10 287.06,380.00 285.07,380.00 C281.49,380.00 281.45,379.95 281.36,375.75 C281.31,373.41 281.22,357.67 281.17,340.76 C281.07,311.13 280.99,309.91 278.96,307.16 C276.93,304.42 276.87,303.53 277.37,283.40 C277.92,261.37 278.78,256.52 282.33,255.40 C286.47,254.08 286.95,252.22 286.76,238.00 L 286.59 224.50 L 286.04 237.89 C285.62,248.39 285.18,251.46 284.00,252.06 C285.22,251.43 285.61,247.69 286.11,231.89 C286.44,221.23 287.23,210.66 287.85,208.41 C289.35,203.03 294.61,195.31 307.54,179.50 C314.41,171.10 318.10,167.06 320.09,162.31 C322.40,156.79 322.40,150.31 322.41,134.91 C322.41,132.85 322.41,130.64 322.42,128.24 L 322.50 97.98 L 319.84 95.74 C316.22,92.68 315.00,89.92 315.00,84.76 C315.00,81.09 315.55,79.86 318.44,77.05 C321.17,74.41 322.93,73.62 326.93,73.23 C331.76,72.77 332.16,72.93 335.99,76.76 C339.45,80.21 340.00,81.37 340.00,85.13 C339.99,90.12 337.19,95.49 334.07,96.48 C332.04,97.12 332.00,97.69 332.00,126.36 C332.00,128.13 332.00,129.82 332.00,131.43 C332.02,149.96 332.03,158.09 329.22,165.09 C326.78,171.18 322.21,176.42 313.67,186.89 C307.66,194.26 301.34,202.54 299.62,205.30 L 298.81 206.60 C300.57,202.93 303.62,199.21 308.98,192.50 C313.19,187.24 314.25,185.58 311.53,188.50 C305.76,194.72 299.83,202.49 297.66,206.69 C295.04,211.76 293.87,223.30 294.61,236.75 ZM 282.85 133.03 C282.61,134.69 281.77,135.60 280.25,135.82 C277.79,136.17 277.42,134.95 279.06,131.89 C280.51,129.17 281.26,113.00 279.93,113.00 C279.26,113.00 278.97,106.13 279.09,93.00 C279.19,82.00 279.61,73.00 280.03,73.00 C281.62,73.00 282.07,69.53 280.62,68.46 C279.80,67.87 278.81,66.11 278.42,64.55 C277.75,61.85 277.85,61.75 280.84,62.19 C283.33,62.55 284.53,62.06 286.73,59.74 L 289.50 56.83 L 287.11 58.19 C288.43,57.13 289.00,55.69 289.00,53.50 C289.00,52.92 288.93,52.36 288.80,51.84 C288.94,52.22 289.04,52.62 289.12,53.03 L 289.74 56.50 L 289.87 53.42 C290.03,49.55 286.49,46.01 282.44,45.98 C280.17,45.97 279.84,45.75 281.00,45.00 C282.25,44.19 282.17,44.01 280.50,43.91 C279.40,43.84 280.42,43.36 282.77,42.83 C286.53,41.99 287.38,42.15 289.98,44.19 C293.17,46.70 295.49,52.87 294.46,56.13 C294.11,57.24 292.40,59.64 290.66,61.45 C283.01,69.43 282.68,69.91 283.76,71.22 C285.47,73.28 286.15,126.34 284.50,128.69 C283.79,129.72 283.04,131.67 282.85,133.03 ZM 331.37 90.93 C334.46,88.49 334.93,83.68 332.35,80.83 C329.81,78.03 324.59,78.44 322.07,81.63 C319.39,85.05 319.46,86.20 322.59,89.92 C325.62,93.53 327.75,93.77 331.37,90.93 ZM 274.50 49.00 C274.84,49.55 274.42,50.00 273.56,50.00 C272.70,50.00 272.00,49.55 272.00,49.00 C272.00,48.45 272.42,48.00 272.94,48.00 C273.46,48.00 274.16,48.45 274.50,49.00 ZM 296.15 230.45 C296.03,237.99 296.03,242.49 296.22,245.04 C295.89,242.91 295.97,239.34 296.09,233.69 C296.11,232.68 296.13,231.60 296.15,230.45 ZM 281.07 47.22 C279.98,47.50 278.92,48.08 278.00,49.00 C277.50,49.50 277.11,50.01 276.80,50.54 C277.70,48.60 279.30,47.53 281.07,47.22 ZM 298.46 247.81 C299.52,247.60 301.09,247.22 302.85,246.77 C300.89,247.40 299.48,247.83 298.46,247.81 ZM 276.68 56.26 C277.36,57.53 278.46,58.58 279.81,59.21 C278.43,58.63 277.32,57.59 276.68,56.26 Z" fill="rgb(32,217,246)"/>
<path d="M 203.72 403.39 C202.62,402.29 202.87,157.95 203.98,150.15 C204.54,146.18 206.08,140.81 207.40,138.21 C208.72,135.62 215.68,126.30 222.87,117.50 C230.06,108.70 236.75,99.93 237.72,98.00 C239.29,94.92 239.54,90.83 239.83,63.84 C240.14,33.79 240.11,33.17 238.13,32.54 C237.01,32.19 235.12,30.32 233.93,28.38 C231.07,23.76 231.61,16.11 235.05,12.45 C238.39,8.89 243.83,7.46 248.34,8.95 C252.32,10.26 256.66,14.80 257.63,18.67 C258.57,22.40 256.36,28.52 253.07,31.29 L 250.18 33.72 L 249.77 64.61 C249.33,98.17 249.08,99.89 243.28,107.92 C241.75,110.05 235.37,118.02 229.10,125.64 C222.84,133.26 216.76,141.52 215.60,144.00 C213.54,148.42 213.49,149.73 213.21,219.75 C213.03,261.96 213.28,291.00 213.82,291.00 C214.32,291.00 215.93,289.27 217.39,287.15 C220.59,282.53 228.55,275.88 235.75,271.79 L 241.00 268.81 L 241.00 226.54 C241.00,202.05 241.43,182.02 242.02,178.91 C243.38,171.70 246.93,166.16 261.12,149.00 C267.73,141.02 274.06,132.70 275.21,130.51 C277.14,126.79 277.32,124.42 277.78,96.48 L 278.28 66.45 L 274.67 63.70 C267.80,58.46 267.55,49.08 274.14,43.53 C278.46,39.90 286.57,39.92 290.91,43.57 C297.09,48.78 297.16,58.60 291.04,63.13 L 288.25 65.19 L 287.39 127.57 L 284.33 134.04 C282.42,138.07 276.72,145.94 269.17,154.98 C262.52,162.94 255.82,171.71 254.29,174.48 L 251.50 179.50 L 251.20 221.88 C250.91,262.36 250.98,264.22 252.70,263.51 C253.69,263.10 260.80,260.53 268.50,257.80 C276.20,255.07 283.17,252.49 284.00,252.06 C285.18,251.46 285.62,248.39 286.04,237.89 L 286.59 224.50 L 286.76 238.00 C286.95,252.22 286.47,254.08 282.33,255.40 C278.78,256.52 277.92,261.37 277.37,283.40 C276.87,303.53 276.93,304.42 278.96,307.16 C280.99,309.91 281.07,311.13 281.17,340.76 C281.22,357.67 281.31,373.41 281.36,375.75 C281.45,379.95 281.49,380.00 285.07,380.00 C287.06,380.00 291.31,379.10 294.51,378.00 C297.71,376.90 300.51,376.17 300.73,376.39 C300.88,376.55 299.81,377.03 297.78,377.77 C280.73,383.50 243.29,394.39 219.10,400.57 L 218.85 400.64 C206.25,403.86 204.80,404.23 204.03,403.67 C203.92,403.59 203.83,403.49 203.72,403.39 ZM 286.78 58.44 C286.89,58.36 287.01,58.28 287.11,58.19 L 289.50 56.83 L 286.73 59.74 C284.53,62.06 283.33,62.55 280.84,62.19 C277.85,61.75 277.75,61.85 278.42,64.55 C278.81,66.11 279.80,67.87 280.62,68.46 C282.07,69.53 281.62,73.00 280.03,73.00 C279.61,73.00 279.19,82.00 279.09,93.00 C278.97,106.13 279.26,113.00 279.93,113.00 C281.26,113.00 280.51,129.17 279.06,131.89 C277.42,134.95 277.79,136.17 280.25,135.82 C281.77,135.60 282.61,134.69 282.85,133.03 C283.04,131.67 283.79,129.72 284.50,128.69 C286.15,126.34 285.47,73.28 283.76,71.22 C282.68,69.91 283.01,69.43 290.66,61.45 C292.40,59.64 294.11,57.24 294.46,56.13 C295.49,52.87 293.17,46.70 289.98,44.19 C287.38,42.15 286.53,41.99 282.77,42.83 C280.42,43.36 279.40,43.84 280.50,43.91 C282.17,44.01 282.25,44.19 281.00,45.00 C279.84,45.75 280.17,45.97 282.44,45.98 C286.49,46.01 290.03,49.55 289.87,53.42 L 289.74 56.50 L 289.12 53.03 C289.04,52.62 288.94,52.22 288.80,51.84 C287.94,48.32 284.37,46.38 281.07,47.22 C279.30,47.53 277.70,48.60 276.80,50.54 C275.67,52.49 275.79,54.57 276.68,56.26 C277.32,57.59 278.43,58.63 279.81,59.21 C281.82,60.15 284.36,60.13 286.78,58.44 ZM 249.25 26.25 C251.81,23.39 251.89,19.03 249.43,16.57 C245.71,12.85 238.00,16.17 238.00,21.50 C238.00,26.91 245.74,30.18 249.25,26.25 ZM 294.61 236.75 C293.87,223.30 295.04,211.76 297.66,206.69 C299.83,202.49 305.76,194.72 311.53,188.50 C314.25,185.58 313.19,187.24 308.98,192.50 C303.62,199.21 300.57,202.93 298.81,206.60 L 296.50 210.32 L 296.17 229.16 C296.16,229.60 296.16,230.03 296.15,230.45 C296.13,231.60 296.11,232.68 296.09,233.69 L 296.09 233.69 C295.97,239.34 295.89,242.91 296.22,245.04 C296.39,247.25 296.69,248.00 297.17,248.00 C297.38,248.00 297.83,247.93 298.46,247.81 C299.48,247.83 300.89,247.40 302.85,246.77 C303.70,246.55 304.60,246.31 305.50,246.06 C307.10,245.61 309.47,244.97 312.15,244.25 C312.41,244.23 312.57,244.23 312.61,244.28 C313.13,244.80 299.12,249.01 296.90,249.00 C295.55,249.00 295.18,247.04 294.61,236.75 ZM 274.50 49.00 C274.16,48.45 273.46,48.00 272.94,48.00 C272.42,48.00 272.00,48.45 272.00,49.00 C272.00,49.55 272.70,50.00 273.56,50.00 C274.42,50.00 274.84,49.55 274.50,49.00 Z" fill="rgb(46,158,224)"/>
<path d="M 158.50 401.05 C98.34,385.42 61.09,372.91 42.62,362.11 C20.21,349.00 13.11,333.72 10.98,294.00 C10.07,276.99 10.67,230.00 11.79,230.00 C13.00,230.00 69.80,243.34 73.90,244.58 C76.43,245.35 78.87,245.98 79.31,245.99 C79.76,246.00 79.99,238.24 79.81,228.75 C79.43,207.48 79.72,208.17 62.15,186.83 C43.31,163.93 44.56,167.95 44.18,129.29 C43.86,98.13 43.79,97.07 41.86,96.45 C38.93,95.53 36.01,90.08 36.00,85.56 C36.00,81.09 39.17,75.70 42.78,74.05 C46.71,72.27 53.45,72.78 56.39,75.09 C63.61,80.77 63.67,90.18 56.52,95.81 L 54.00 97.79 L 54.02 126.64 C54.04,142.51 54.45,157.22 54.93,159.31 C55.83,163.19 59.73,168.54 76.17,188.50 C89.33,204.48 89.31,204.42 89.96,228.83 L 90.50 249.17 L 102.00 253.47 C111.49,257.01 118.39,259.90 124.30,262.81 C124.74,263.02 124.97,244.59 124.80,221.85 L 124.50 180.50 L 121.74 175.00 C120.22,171.98 113.35,162.78 106.48,154.56 C99.61,146.34 93.03,137.62 91.85,135.19 C88.92,129.14 88.12,119.72 88.05,90.64 L 88.00 65.79 L 85.48 63.81 C78.33,58.18 78.39,48.77 85.61,43.09 C88.52,40.81 94.99,40.28 99.43,41.98 C102.95,43.31 105.99,48.66 105.99,53.50 C105.99,58.16 103.07,63.53 99.99,64.50 C97.85,65.18 97.85,65.24 98.17,95.84 C98.48,125.02 98.60,126.69 100.66,130.54 C101.85,132.76 108.54,141.53 115.53,150.04 C123.12,159.27 129.50,168.12 131.37,172.00 L 134.50 178.50 L 135.00 223.65 L 135.50 268.80 L 141.66 273.33 C148.60,278.44 155.06,284.57 159.76,290.50 L 162.93 294.50 L 162.96 226.00 C162.97,185.22 162.58,155.02 161.99,151.37 C160.65,143.14 158.12,139.02 143.89,122.00 C137.22,114.03 130.58,105.03 129.13,102.00 L 126.50 96.50 L 126.16 65.08 L 125.83 33.65 L 123.39 31.74 C118.58,27.95 116.71,21.36 119.12,16.68 C122.75,9.65 128.88,6.90 135.33,9.42 C140.65,11.50 143.20,15.04 143.79,21.14 C144.23,25.74 144.05,26.19 140.06,30.17 L 135.87 34.36 L 136.19 64.93 C136.55,100.24 135.70,96.88 147.86,111.30 C162.09,128.19 167.90,136.12 170.21,141.83 L 172.50 147.50 L 172.80 273.50 C172.96,342.79 172.84,400.51 172.53,401.75 C171.83,404.53 171.92,404.54 158.50,401.05 ZM 53.93 89.37 C56.52,86.07 56.52,84.93 53.93,81.63 C50.10,76.78 42.00,79.40 42.00,85.50 C42.00,91.60 50.10,94.22 53.93,89.37 ZM 97.96 57.81 C101.93,53.55 99.07,46.98 93.25,47.02 C89.94,47.03 88.67,47.80 87.15,50.68 C85.59,53.65 85.68,54.32 88.07,57.37 C90.68,60.68 95.10,60.88 97.96,57.81 ZM 135.96 25.81 C137.08,24.61 138.00,22.67 138.00,21.50 C138.00,18.45 134.39,15.00 131.21,15.02 C127.94,15.03 126.66,15.81 125.15,18.68 C123.59,21.65 123.68,22.32 126.07,25.37 C128.68,28.68 133.10,28.88 135.96,25.81 ZM 179.00 73.92 C169.68,69.70 164.77,62.36 164.70,52.54 C164.61,39.25 174.10,29.97 187.72,30.02 C198.50,30.06 206.52,36.10 209.53,46.45 C211.28,52.49 210.82,57.34 207.96,63.00 C204.31,70.19 195.21,75.96 187.50,75.96 C185.30,75.96 181.48,75.04 179.00,73.92 ZM 191.15 66.97 C193.28,66.38 196.30,64.30 198.40,61.98 C201.47,58.58 202.00,57.30 202.00,53.25 C201.98,38.68 185.14,32.72 175.70,43.94 C173.56,46.49 173.00,48.18 173.00,52.13 C173.00,60.00 175.75,64.08 182.74,66.57 C187.36,68.22 186.77,68.19 191.15,66.97 Z" fill="rgb(142,189,99)"/>
</g>
</svg>