<svg xmlns="http://www.w3.org/2000/svg" width="423" height="419" viewBox="0 0 423 419">
<g>
<path d="M 191.00 418.40 C141.67,412.60 100.86,394.14 67.00,362.29 C12.97,311.48 -10.12,240.35 4.09,168.50 C12.00,128.51 31.30,92.80 61.26,62.68 C103.69,20.04 159.80,-2.07 219.50,0.34 C278.97,2.73 330.72,27.25 370.85,72.06 C427.09,134.85 439.14,227.75 400.83,303.20 C374.45,355.16 326.91,394.67 271.61,410.62 C251.32,416.47 239.21,418.17 215.50,418.51 C203.95,418.67 192.93,418.62 191.00,418.40 ZM 191.00 405.37 C192.93,405.60 204.62,405.67 217.00,405.53 C240.90,405.24 249.18,404.11 269.09,398.41 C331.58,380.51 382.59,331.27 402.99,269.15 C426.57,197.34 407.89,119.05 354.42,65.58 C301.32,12.49 224.00,-6.21 151.91,16.62 C139.12,20.67 115.27,32.30 102.50,40.71 C58.89,69.44 27.84,115.39 17.49,166.50 C5.90,223.71 19.35,282.02 54.86,328.50 C61.34,336.98 78.14,354.13 87.00,361.28 C104.82,375.68 129.18,389.14 149.83,396.00 C160.11,399.41 180.89,404.14 191.00,405.37 ZM 237.50 350.57 C215.18,354.65 185.94,352.12 164.50,344.26 C143.88,336.71 126.01,325.18 109.94,309.08 C97.22,296.35 88.60,284.36 81.54,269.61 C61.24,227.24 62.68,178.30 85.45,136.54 C90.26,127.72 99.95,114.11 104.20,110.22 L 106.69 107.95 L 107.35 130.22 C108.02,152.94 107.50,165.23 105.85,165.85 C103.20,166.84 99.00,171.48 97.99,174.54 C96.48,179.12 97.52,183.39 101.18,187.55 C106.56,193.68 114.80,193.95 120.33,188.18 C127.38,180.82 125.05,169.62 115.75,166.09 L 113.00 165.05 L 113.00 101.20 L 118.54 96.14 C134.63,81.43 159.76,69.09 184.31,63.83 C198.04,60.89 227.84,60.67 241.50,63.40 C270.50,69.21 294.58,82.38 316.51,104.43 C337.58,125.61 350.29,148.99 356.68,178.30 C359.25,190.11 359.22,223.01 356.62,235.00 C354.58,244.42 349.36,260.80 347.77,262.75 C347.05,263.64 342.77,264.00 332.88,264.00 L 319.00 264.00 L 318.90 208.50 L 281.03 172.50 L 281.02 145.37 L 281.00 118.24 L 284.42 115.63 C293.15,108.97 290.54,95.04 279.96,91.87 C276.70,90.89 275.32,90.99 271.45,92.47 C265.69,94.67 263.01,98.70 263.00,105.17 C263.00,110.64 266.32,115.40 271.70,117.65 L 275.00 119.03 L 275.00 174.72 L 294.52 193.48 L 314.03 212.23 L 313.77 238.37 L 313.50 264.50 L 308.50 264.84 C305.75,265.02 297.99,264.86 291.25,264.48 L 279.00 263.80 L 279.00 207.71 L 274.25 203.10 C271.64,200.57 262.80,192.02 254.62,184.12 L 239.74 169.75 L 239.12 152.00 L 238.50 134.25 L 242.11 132.18 C254.06,125.31 249.18,107.02 235.40,107.00 C230.71,107.00 225.23,110.18 223.28,114.03 C220.09,120.33 223.20,130.12 229.09,132.34 C230.73,132.96 232.27,134.38 232.49,135.48 C232.72,136.59 233.07,145.33 233.27,154.91 L 233.64 172.32 L 253.36 191.41 L 273.08 210.50 L 273.04 237.25 L 273.00 264.00 L 244.00 264.00 L 244.00 238.17 L 203.14 201.50 L 203.07 174.37 L 203.00 147.23 L 205.55 145.56 C214.62,139.61 213.66,126.54 203.79,121.69 C198.59,119.14 193.54,120.26 188.75,125.03 C185.41,128.36 185.00,129.31 185.00,133.81 C185.00,139.67 188.16,144.34 193.70,146.65 L 197.00 148.03 L 197.00 203.83 L 237.86 240.50 L 238.00 264.00 L 212.00 264.00 L 212.00 251.06 L 172.00 214.74 L 172.00 172.92 L 175.92 169.19 C182.47,162.96 182.64,155.22 176.34,149.29 C173.27,146.38 172.21,146.00 167.31,146.00 C162.20,146.00 161.46,146.31 157.88,149.88 C154.43,153.33 154.00,154.31 154.00,158.63 C154.01,165.06 156.86,169.71 162.04,171.75 L 166.00 173.30 L 166.00 217.75 L 185.97 235.62 L 205.95 253.50 L 205.97 261.56 L 206.00 269.63 L 187.50 291.91 L 164.90 291.95 C144.60,292.00 142.16,291.82 140.79,290.25 C138.91,288.09 120.00,258.29 120.00,257.50 C120.00,257.18 120.97,255.60 122.17,253.99 C125.02,250.13 125.11,242.98 122.35,239.21 C114.42,228.41 97.88,233.27 97.59,246.49 C97.44,253.66 103.74,260.27 110.73,260.27 C114.58,260.27 114.67,260.36 122.06,271.75 C126.15,278.06 129.68,283.74 129.91,284.36 C130.13,284.99 132.08,288.31 134.25,291.75 L 138.18 298.00 L 164.34 297.95 L 190.50 297.89 L 212.50 271.04 L 222.00 271.00 L 222.00 287.50 C222.00,300.88 221.74,304.00 220.62,304.00 C219.86,304.00 217.61,305.80 215.62,308.00 C212.65,311.28 212.00,312.77 212.00,316.25 C212.01,324.97 218.38,330.60 227.26,329.75 C234.34,329.07 238.18,325.07 238.72,317.82 C239.20,311.34 236.78,306.82 231.51,304.30 L 228.00 302.63 L 228.00 271.00 L 344.15 271.00 L 340.14 278.25 C324.94,305.76 296.11,330.61 264.51,343.47 C259.12,345.67 247.22,348.79 237.50,350.57 ZM 116.19 251.96 C114.52,253.63 112.56,254.97 111.83,254.94 C107.34,254.72 103.00,250.45 103.00,246.23 C103.00,244.95 104.19,242.80 105.65,241.45 C110.52,236.94 117.35,239.18 118.61,245.71 C119.13,248.40 118.74,249.42 116.19,251.96 ZM 116.19 183.96 C112.38,187.77 109.65,187.80 105.92,184.08 C100.89,179.04 103.00,172.50 110.02,171.38 C114.41,170.67 117.73,173.12 118.61,177.71 C119.13,180.40 118.74,181.42 116.19,183.96 ZM 281.08 110.08 C277.63,113.53 276.56,113.64 272.25,111.01 C269.49,109.33 269.00,108.45 269.00,105.17 C269.00,100.72 271.07,98.34 275.75,97.40 C278.26,96.90 279.37,97.28 281.43,99.34 C284.85,102.76 284.73,106.43 281.08,110.08 ZM 201.93 140.54 C198.59,142.26 198.13,142.28 195.50,140.85 C190.87,138.32 189.63,133.40 192.56,129.22 C193.76,127.50 195.10,127.00 198.50,127.00 C201.90,127.00 203.24,127.50 204.44,129.22 C207.36,133.39 206.27,138.29 201.93,140.54 ZM 231.00 322.00 C228.02,324.98 222.67,324.67 220.07,321.37 C217.32,317.87 217.45,314.45 220.45,311.45 C223.45,308.45 226.87,308.32 230.37,311.07 C233.67,313.67 233.98,319.02 231.00,322.00 ZM 172.55 164.55 C169.55,167.55 166.13,167.68 162.63,164.93 C159.33,162.33 159.02,156.98 162.00,154.00 C164.98,151.02 170.33,151.33 172.93,154.63 C175.68,158.13 175.55,161.55 172.55,164.55 ZM 240.55 125.55 C237.55,128.55 234.13,128.68 230.63,125.93 C228.71,124.42 228.00,122.94 228.00,120.47 C228.00,113.48 236.68,110.24 240.93,115.63 C243.68,119.13 243.55,122.55 240.55,125.55 Z" fill="rgba(0,26,14,1)"/>
<path d="M 269.09 398.41 C299.61,389.67 330.79,371.56 341.50,356.34 C343.19,353.94 343.42,352.40 343.00,346.33 C342.73,342.39 342.20,338.86 341.83,338.49 C341.46,338.13 338.31,340.02 334.83,342.69 C314.53,358.28 286.96,373.00 278.09,373.00 L 275.50 373.00 L 275.39 357.25 L 275.28 341.50 L 272.89 341.36 C271.63,341.29 268.12,342.15 264.93,343.30 C296.37,330.39 325.00,305.64 340.14,278.25 L 344.15 271.00 L 228.00 271.00 L 228.00 270.00 L 282.07 270.00 C337.59,270.00 343.66,269.61 337.57,266.45 C336.12,265.70 331.46,264.95 327.22,264.79 L 319.50 264.50 L 319.49 264.00 L 332.88 264.00 C342.77,264.00 347.05,263.64 347.77,262.75 C349.36,260.80 354.58,244.42 356.62,235.00 C359.22,223.01 359.25,190.11 356.68,178.30 C350.29,148.99 337.58,125.61 316.51,104.43 C294.66,82.46 270.67,69.30 241.81,63.46 C248.23,64.56 254.25,66.21 261.00,68.57 C265.12,70.02 269.96,71.39 271.75,71.62 L 275.00 72.05 L 275.22 60.77 C275.33,54.57 275.36,47.81 275.28,45.75 C275.13,42.15 275.26,42.00 278.37,42.00 C287.25,42.00 315.03,57.14 338.34,74.68 L 343.17 78.32 L 342.77 68.02 C342.41,58.56 342.18,57.56 339.94,55.73 C338.60,54.63 337.60,53.38 337.72,52.95 C338.09,51.64 331.13,45.62 323.45,40.22 C334.44,47.52 344.83,55.99 354.42,65.58 C407.89,119.05 426.57,197.34 402.99,269.15 C382.59,331.27 331.58,380.51 269.09,398.41 ZM 318.94 233.17 L 318.50 208.37 L 299.77 190.44 L 282.11 173.52 L 299.96 190.50 L 318.90 208.50 L 318.94 233.17 ZM 226.49 352.01 C217.36,352.92 208.54,353.00 201.00,352.11 C198.86,351.85 196.76,351.57 194.69,351.27 C205.37,352.58 216.34,352.86 226.49,352.01 ZM 198.62 62.03 C193.08,62.42 188.09,63.02 184.31,63.83 C172.27,66.41 160.09,70.69 148.91,76.12 C154.35,73.41 159.92,71.03 165.31,69.12 C177.47,64.83 186.35,62.81 198.62,62.03 ZM 287.46 21.31 C244.53,4.22 196.87,2.38 151.91,16.62 C197.48,2.18 245.15,4.35 287.46,21.31 ZM 109.94 309.08 C123.16,322.33 137.61,332.48 153.80,339.87 C137.73,332.77 123.54,322.72 109.94,309.08 ZM 236.88 324.34 C235.35,326.94 232.90,328.63 229.53,329.39 C231.72,328.79 233.73,327.73 235.23,326.23 C235.91,325.55 236.45,324.95 236.88,324.34 ZM 257.63 345.79 C252.17,347.47 246.41,348.88 240.58,349.98 C246.40,348.81 252.63,347.26 257.63,345.79 ZM 112.80 233.40 C107.27,232.75 101.53,235.47 98.97,240.63 C101.52,235.40 107.23,232.66 112.80,233.40 ZM 216.72 326.94 C213.82,324.60 212.07,320.97 212.01,316.50 C212.11,320.78 213.78,324.43 216.72,326.94 ZM 122.17 253.99 C124.09,251.39 124.75,246.97 124.06,243.32 C124.81,246.96 124.17,251.28 122.17,253.99 ZM 97.60 246.40 C97.54,249.38 98.55,252.24 100.24,254.59 C98.54,252.26 97.53,249.42 97.59,246.49 C97.60,246.46 97.60,246.43 97.60,246.40 ZM 212.39 312.89 C212.85,311.35 213.80,310.01 215.62,308.00 C213.82,310.00 212.86,311.37 212.39,312.89 Z" fill="rgba(39,129,6,1)"/>
<path d="M 124.40 28.41 C134.46,23.38 144.86,18.85 151.91,16.62 C207.06,-0.85 266.26,5.89 315.83,35.26 C325.74,41.13 338.21,51.21 337.72,52.95 C337.60,53.38 338.60,54.63 339.94,55.73 C342.18,57.56 342.41,58.56 342.77,68.02 L 343.17 78.32 L 338.34 74.68 C315.03,57.14 287.25,42.00 278.37,42.00 C275.26,42.00 275.13,42.15 275.28,45.75 C275.36,47.81 275.33,54.57 275.22,60.77 L 275.00 72.05 L 271.75 71.62 C269.96,71.39 265.12,70.02 261.00,68.57 C245.78,63.24 234.30,61.56 213.50,61.61 C192.42,61.65 181.95,63.27 165.54,69.04 C169.52,67.59 172.99,66.08 173.50,65.55 C174.77,64.22 174.86,63.21 175.21,47.76 C175.44,37.86 175.21,34.91 174.17,34.51 C170.66,33.16 161.45,34.55 141.82,39.39 C136.41,40.72 136.15,40.70 136.28,38.89 C136.36,37.85 136.84,37.00 137.35,37.00 C138.50,37.00 137.52,25.12 136.26,23.86 C135.69,23.29 130.70,25.32 124.40,28.41 ZM 191.00 405.37 C180.89,404.14 160.11,399.41 149.83,396.00 C142.57,393.58 134.84,390.36 127.10,386.55 C130.06,387.86 132.34,388.65 132.83,388.47 C133.56,388.21 134.72,388.00 135.41,388.00 C136.14,388.00 137.12,385.47 137.79,381.87 C138.41,378.50 139.06,375.61 139.21,375.45 C139.37,375.30 144.00,376.25 149.50,377.58 C155.00,378.91 162.99,380.29 167.25,380.65 C174.40,381.25 175.01,381.15 175.12,379.40 C175.61,371.89 174.84,352.03 173.98,349.96 C173.18,348.03 171.12,346.76 165.22,344.58 C161.34,343.14 157.59,341.60 153.94,339.94 C167.92,346.09 183.32,350.01 201.00,352.11 C219.22,354.26 244.84,350.77 264.50,343.46 C267.80,342.23 271.58,341.29 272.89,341.36 L 275.28 341.50 L 275.39 357.25 L 275.50 373.00 L 278.09 373.00 C286.96,373.00 314.53,358.28 334.83,342.69 C338.31,340.02 341.46,338.13 341.83,338.49 C342.20,338.86 342.73,342.39 343.00,346.33 C343.42,352.40 343.19,353.94 341.50,356.34 C330.79,371.56 299.61,389.67 269.09,398.41 C249.18,404.11 240.90,405.24 217.00,405.53 C204.62,405.67 192.93,405.60 191.00,405.37 ZM 218.30 328.10 C214.26,325.56 212.00,321.24 212.00,316.05 C212.00,312.81 212.72,311.21 215.62,308.00 C217.61,305.80 219.86,304.00 220.62,304.00 C221.74,304.00 222.00,300.88 222.00,287.50 L 222.00 271.00 L 212.50 271.04 L 190.50 297.89 L 164.34 297.95 L 138.18 298.00 L 134.25 291.75 C132.08,288.31 130.13,284.99 129.91,284.36 C129.72,283.85 127.30,279.91 124.16,275.02 C128.35,281.39 132.50,287.23 133.76,288.49 C135.14,289.87 136.77,290.96 137.39,290.92 C138.12,290.87 138.09,290.68 137.31,290.36 C136.65,290.09 136.34,289.29 136.61,288.58 C136.88,287.87 136.14,285.65 134.95,283.64 C133.77,281.64 133.06,280.00 133.38,280.00 C133.62,280.00 132.05,277.21 129.63,273.26 C134.61,281.11 139.85,289.16 140.79,290.25 C142.16,291.82 144.60,292.00 164.90,291.95 L 187.50 291.91 L 206.00 269.63 L 205.97 261.56 L 205.95 253.50 L 185.97 235.62 L 166.00 217.75 L 166.00 173.30 L 162.04 171.75 C156.86,169.71 154.01,165.06 154.00,158.63 C154.00,154.31 154.43,153.33 157.88,149.88 C161.46,146.31 162.20,146.00 167.31,146.00 C172.21,146.00 173.27,146.38 176.34,149.29 C182.64,155.22 182.47,162.96 175.92,169.19 L 172.00 172.92 L 172.00 214.74 L 212.00 251.06 L 212.00 264.00 L 238.00 264.00 L 237.86 240.50 L 197.00 203.83 L 197.00 148.03 L 193.70 146.65 C188.16,144.34 185.00,139.67 185.00,133.81 C185.00,129.31 185.41,128.36 188.75,125.03 C193.54,120.26 198.59,119.14 203.79,121.69 C213.66,126.54 214.62,139.61 205.55,145.56 L 203.00 147.23 L 203.07 174.37 L 203.14 201.50 L 244.00 238.17 L 244.00 264.00 L 273.00 264.00 L 273.04 237.25 L 273.08 210.50 L 253.36 191.41 L 233.64 172.32 L 233.27 154.91 C233.07,145.33 232.72,136.59 232.49,135.48 C232.27,134.38 230.73,132.96 229.09,132.34 C223.20,130.12 220.09,120.33 223.28,114.03 C225.23,110.18 230.71,107.00 235.40,107.00 C249.18,107.02 254.06,125.31 242.11,132.18 L 238.50 134.25 L 239.12 152.00 L 239.74 169.75 L 254.62 184.12 C262.80,192.02 271.64,200.57 274.25,203.10 L 279.00 207.71 L 279.00 263.80 L 291.25 264.48 C297.99,264.86 305.75,265.02 308.50,264.84 L 313.50 264.50 L 313.77 238.37 L 314.03 212.23 L 294.52 193.48 L 275.00 174.72 L 275.00 119.03 L 271.70 117.65 C266.32,115.40 263.00,110.64 263.00,105.17 C263.01,98.70 265.69,94.67 271.45,92.47 C275.32,90.99 276.70,90.89 279.96,91.87 C290.54,95.04 293.15,108.97 284.42,115.63 L 281.00 118.24 L 281.02 145.37 L 281.04 172.50 L 318.50 208.37 L 319.50 264.50 L 327.22 264.79 C331.46,264.95 336.12,265.70 337.57,266.45 C343.66,269.61 337.59,270.00 282.07,270.00 L 228.00 270.00 L 228.00 302.63 L 231.51 304.30 C236.78,306.82 239.20,311.34 238.72,317.82 C238.40,322.14 237.74,323.72 235.23,326.23 C231.14,330.32 223.22,331.19 218.30,328.10 ZM 112.17 260.31 C111.74,260.27 111.27,260.27 110.72,260.27 C110.61,260.27 110.50,260.27 110.39,260.27 C106.34,260.15 102.58,257.86 100.20,254.53 C98.53,252.20 97.54,249.35 97.60,246.40 C97.66,244.24 98.15,242.31 98.97,240.63 C101.53,235.47 107.27,232.75 112.80,233.40 C116.32,233.86 119.78,235.72 122.35,239.21 C123.17,240.34 123.74,241.77 124.06,243.32 C124.75,246.97 124.09,251.39 122.17,253.99 C122.02,254.19 121.87,254.39 121.73,254.59 C120.75,255.98 120.00,257.22 120.00,257.50 L 120.00 257.50 L 120.00 257.50 C120.00,257.76 122.11,261.30 124.99,265.88 ZM 281.08 110.08 C284.73,106.43 284.85,102.76 281.43,99.34 C279.37,97.28 278.26,96.90 275.75,97.40 C271.07,98.34 269.00,100.72 269.00,105.17 C269.00,108.45 269.49,109.33 272.25,111.01 C276.56,113.64 277.63,113.53 281.08,110.08 ZM 201.93 140.54 C206.27,138.29 207.36,133.39 204.44,129.22 C203.24,127.50 201.90,127.00 198.50,127.00 C195.10,127.00 193.76,127.50 192.56,129.22 C189.63,133.40 190.87,138.32 195.50,140.85 C198.13,142.28 198.59,142.26 201.93,140.54 ZM 231.00 322.00 C233.98,319.02 233.67,313.67 230.37,311.07 C226.87,308.32 223.45,308.45 220.45,311.45 C217.45,314.45 217.32,317.87 220.07,321.37 C222.67,324.67 228.02,324.98 231.00,322.00 ZM 172.55 164.55 C175.55,161.55 175.68,158.13 172.93,154.63 C170.33,151.33 164.98,151.02 162.00,154.00 C159.02,156.98 159.33,162.33 162.63,164.93 C166.13,167.68 169.55,167.55 172.55,164.55 ZM 240.55 125.55 C243.55,122.55 243.68,119.13 240.93,115.63 C236.68,110.24 228.00,113.48 228.00,120.47 C228.00,122.94 228.71,124.42 230.63,125.93 C234.13,128.68 237.55,128.55 240.55,125.55 ZM 48.11 94.34 C61.32,75.02 77.91,57.99 97.13,44.38 C78.19,57.85 61.40,75.04 48.11,94.34 ZM 58.35 332.78 C57.00,331.20 55.82,329.76 54.86,328.50 C49.02,320.85 43.77,312.88 39.14,304.65 C23.95,277.67 15.31,247.87 13.70,217.27 C15.33,247.74 23.92,277.68 39.14,304.65 C44.51,314.17 50.71,323.33 57.72,332.00 C57.92,332.25 58.13,332.51 58.35,332.78 ZM 86.22 360.64 C82.29,357.38 77.02,352.42 71.81,347.19 C76.77,352.11 81.97,356.99 86.22,360.64 ZM 164.15 69.54 C156.98,72.15 149.55,75.59 142.53,79.46 C149.66,75.51 157.15,72.03 164.15,69.54 ZM 17.22 167.83 C17.31,167.38 17.40,166.94 17.49,166.50 C19.14,158.33 21.33,150.28 24.01,142.42 C21.17,150.79 18.91,159.28 17.22,167.83 Z" fill="rgba(93,186,20,1)"/>
<path d="M 122.50 384.36 C112.55,379.29 99.70,371.17 90.50,364.14 C82.02,357.66 64.87,340.86 57.72,332.00 C11.01,274.20 0.34,195.26 30.00,126.88 C44.89,92.54 71.03,61.47 102.50,40.69 C113.85,33.20 135.04,22.64 136.26,23.86 C137.52,25.12 138.50,37.00 137.35,37.00 C136.84,37.00 136.36,37.85 136.28,38.89 C136.15,40.70 136.41,40.72 141.82,39.39 C161.45,34.55 170.66,33.16 174.17,34.51 C175.21,34.91 175.44,37.86 175.21,47.76 C174.86,63.21 174.77,64.22 173.50,65.55 C172.95,66.12 168.90,67.86 164.50,69.41 C148.40,75.09 129.61,86.02 118.54,96.14 L 113.00 101.20 L 113.00 133.13 L 113.00 165.05 L 115.75 166.09 C125.05,169.62 127.38,180.82 120.33,188.18 C114.80,193.95 106.56,193.68 101.18,187.55 C97.52,183.39 96.48,179.12 97.99,174.54 C99.00,171.48 103.20,166.84 105.85,165.85 C107.50,165.23 108.02,152.94 107.35,130.22 L 106.69 107.95 L 104.20 110.22 C99.95,114.11 90.26,127.72 85.45,136.54 C62.68,178.30 61.24,227.24 81.54,269.61 C88.60,284.36 97.22,296.35 109.94,309.08 C126.17,325.35 143.80,336.66 165.22,344.58 C171.12,346.76 173.18,348.03 173.98,349.96 C174.84,352.03 175.61,371.89 175.12,379.40 C175.01,381.15 174.40,381.25 167.25,380.65 C162.99,380.29 155.00,378.91 149.50,377.58 C144.00,376.25 139.37,375.30 139.21,375.45 C139.06,375.61 138.41,378.50 137.79,381.87 C137.12,385.47 136.14,388.00 135.41,388.00 C134.72,388.00 133.56,388.21 132.83,388.47 C132.10,388.73 127.45,386.88 122.50,384.36 ZM 116.19 183.96 C118.74,181.42 119.13,180.40 118.61,177.71 C117.73,173.12 114.41,170.67 110.02,171.38 C103.00,172.50 100.89,179.04 105.92,184.08 C109.65,187.80 112.38,187.77 116.19,183.96 ZM 133.76 288.49 C132.38,287.11 127.50,280.19 122.93,273.12 C114.62,260.29 114.60,260.27 110.72,260.27 C103.74,260.27 97.44,253.66 97.59,246.49 C97.88,233.27 114.42,228.41 122.35,239.21 C125.11,242.98 125.02,250.13 122.17,253.99 C120.97,255.60 120.00,257.18 120.00,257.50 C120.00,257.82 123.14,263.02 126.98,269.04 C130.82,275.07 133.70,280.00 133.38,280.00 C133.06,280.00 133.77,281.64 134.95,283.64 C136.14,285.65 136.88,287.87 136.61,288.58 C136.34,289.29 136.65,290.09 137.31,290.36 C138.09,290.68 138.12,290.87 137.39,290.92 C136.77,290.96 135.14,289.87 133.76,288.49 ZM 116.19 251.96 C118.74,249.42 119.13,248.40 118.61,245.71 C117.35,239.18 110.52,236.94 105.65,241.45 C104.19,242.80 103.00,244.95 103.00,246.23 C103.00,250.45 107.34,254.72 111.83,254.94 C112.56,254.97 114.52,253.63 116.19,251.96 Z" fill="rgba(153,229,50,1)"/>
</g>
</svg>