<svg xmlns="http://www.w3.org/2000/svg" width="423" height="419" viewBox="0 0 423 419">
<g>
<path d="M 0.00 0.00 L 423.00 0.00 L 423.00 419.00 L 0.00 419.00 ZM 190.00 405.55 C203.02,407.26 230.64,406.73 244.00,404.52 C287.90,397.25 326.51,377.06 357.05,345.40 C387.65,313.68 406.48,274.10 411.95,230.03 C413.45,217.95 413.22,192.28 411.50,180.20 C405.16,135.60 385.93,96.87 354.53,65.47 C314.70,25.65 262.89,5.29 206.50,7.32 C167.58,8.72 136.58,18.48 103.50,39.75 C87.50,50.04 66.23,69.61 54.86,84.50 C36.64,108.35 23.12,137.65 17.49,165.44 C11.98,192.70 12.01,220.35 17.58,248.00 C34.26,330.66 103.87,394.27 190.00,405.55 ZM 232.20 351.51 C214.84,353.80 200.45,353.19 183.12,349.44 C178.93,348.54 173.62,347.41 171.32,346.94 C157.36,344.09 131.95,329.75 116.98,316.27 C101.07,301.95 90.76,288.48 81.96,270.50 C71.50,249.13 67.59,231.85 67.59,207.00 C67.59,182.28 71.92,163.07 82.07,142.85 C88.85,129.31 103.60,108.00 106.17,108.00 C106.63,108.00 106.98,120.94 106.96,136.75 L 106.92 165.50 L 103.71 167.50 C99.40,170.19 96.60,176.03 97.45,180.56 C98.29,185.05 103.15,190.57 107.55,192.02 C112.21,193.55 117.00,191.91 120.95,187.40 C123.53,184.46 124.00,183.12 124.00,178.60 C124.00,172.38 121.61,168.57 116.33,166.37 L 113.00 164.97 L 113.00 100.23 L 119.75 94.77 C138.74,79.41 158.38,69.62 180.76,64.37 C189.10,62.42 195.30,61.73 208.50,61.30 C236.59,60.39 254.89,64.36 278.97,76.61 C315.59,95.23 342.40,127.34 353.61,165.99 C357.39,179.02 359.05,191.60 359.05,207.24 C359.06,226.27 356.40,241.12 349.82,258.75 L 347.86 264.00 L 333.43 264.00 C325.49,264.00 319.05,263.66 319.12,263.25 C319.18,262.84 319.16,250.35 319.08,235.50 L 318.92 208.50 L 281.05 172.50 L 281.02 145.60 L 281.00 118.69 L 284.91 115.08 C291.35,109.14 291.65,101.86 285.72,95.39 C281.65,90.95 276.10,89.91 270.52,92.56 C260.28,97.42 260.60,112.46 271.03,116.84 L 274.98 118.50 L 274.99 146.58 L 275.00 174.66 L 294.42 193.08 L 313.83 211.50 L 313.67 238.00 L 313.50 264.50 L 279.00 265.05 L 279.00 236.27 L 279.00 207.50 L 259.61 189.00 C247.46,177.40 242.43,173.19 240.37,167.84 C238.93,164.07 238.95,159.74 238.99,151.86 C239.00,150.30 239.01,148.61 239.01,146.75 C239.00,136.11 239.29,133.00 240.30,133.00 C241.02,133.00 243.10,131.46 244.92,129.59 C253.34,120.90 247.55,107.01 235.50,107.01 C221.66,107.01 216.68,125.71 228.86,131.93 L 232.68 133.88 L 233.29 153.19 L 233.90 172.50 L 253.50 191.50 L 273.11 210.50 L 272.50 264.50 L 244.50 264.50 L 244.22 251.31 L 243.94 238.13 L 223.50 219.81 L 203.06 201.50 L 203.03 174.37 L 203.00 147.23 L 205.55 145.56 C206.95,144.64 208.97,142.45 210.04,140.70 C215.18,132.28 209.04,120.90 199.23,120.65 C190.67,120.42 185.00,125.86 185.00,134.29 C185.00,139.64 188.37,144.42 193.70,146.65 L 197.00 148.03 L 197.00 203.86 L 217.25 222.24 L 237.50 240.61 L 237.50 264.50 L 212.50 264.50 L 212.21 257.80 L 211.91 251.10 L 191.96 232.98 L 172.00 214.87 L 172.00 172.23 L 174.55 170.56 C177.91,168.35 180.99,163.18 181.00,159.72 C181.01,151.69 175.06,146.01 166.63,146.00 C162.31,146.00 161.33,146.43 157.88,149.88 C154.43,153.33 154.00,154.31 154.00,158.63 C154.01,165.10 156.86,169.71 162.13,171.78 L 166.16 173.37 L 165.83 195.33 L 165.50 217.29 L 185.68 235.39 L 205.86 253.50 L 205.93 261.67 L 206.00 269.84 L 187.50 291.97 L 164.43 291.99 L 141.36 292.00 L 130.68 275.10 C124.81,265.80 120.00,257.89 120.00,257.51 C120.00,257.13 120.90,255.67 122.00,254.27 C123.31,252.60 124.00,250.22 124.00,247.32 C124.00,238.80 119.24,234.00 110.80,234.00 C99.04,234.01 93.24,246.19 100.74,255.11 C103.64,258.54 108.50,261.00 112.40,261.00 C114.40,261.00 115.91,262.59 120.24,269.25 C123.19,273.79 125.87,278.19 126.19,279.04 C126.52,279.89 129.31,284.51 132.40,289.29 L 138.01 298.00 L 164.26 297.98 L 190.50 297.96 L 212.50 271.11 L 222.00 271.00 L 222.00 287.43 C222.00,302.46 221.84,303.91 220.18,304.44 C217.01,305.45 212.95,310.55 212.34,314.29 C211.57,319.04 212.44,322.19 215.57,325.90 C223.38,335.18 239.01,329.39 239.00,317.22 C238.99,311.31 236.41,306.90 231.62,304.62 L 228.00 302.91 L 228.00 271.00 L 286.00 271.00 C317.90,271.00 344.00,271.31 344.00,271.69 C344.00,272.07 342.12,275.56 339.83,279.44 C324.46,305.44 303.24,324.95 275.50,338.56 C260.86,345.75 249.04,349.28 232.20,351.51 ZM 116.08 184.08 C114.47,185.68 112.18,187.00 111.00,187.00 C107.97,187.00 103.00,181.74 103.00,178.53 C103.00,174.90 107.14,171.00 111.00,171.00 C114.86,171.00 119.00,174.90 119.00,178.53 C119.00,180.10 117.82,182.33 116.08,184.08 ZM 116.19 251.96 C112.48,255.68 110.09,255.78 106.08,252.41 C100.64,247.83 102.85,240.52 110.02,239.38 C114.41,238.67 117.73,241.12 118.61,245.71 C119.13,248.40 118.74,249.42 116.19,251.96 ZM 280.92 110.41 C277.54,113.26 276.47,113.47 273.50,111.85 C268.23,108.96 267.29,102.49 271.63,99.07 C275.13,96.32 278.55,96.45 281.55,99.45 C285.04,102.95 284.80,107.15 280.92,110.41 ZM 201.32 140.84 C198.67,142.25 198.06,142.25 195.50,140.85 C188.56,137.05 189.94,127.89 197.68,126.39 C200.25,125.90 201.36,126.27 203.43,128.34 C207.54,132.45 206.60,138.02 201.32,140.84 ZM 231.25 321.80 C229.02,324.38 226.16,325.11 223.09,323.90 C215.70,320.97 216.69,310.93 224.52,309.42 C231.16,308.14 235.75,316.59 231.25,321.80 ZM 240.55 125.55 C237.55,128.55 234.13,128.68 230.63,125.93 C225.12,121.59 228.33,113.00 235.46,113.00 C242.36,113.00 245.45,120.64 240.55,125.55 ZM 171.89 165.25 C169.09,167.57 165.85,167.46 162.63,164.93 C157.14,160.61 160.33,152.00 167.43,152.00 C174.31,152.00 177.27,160.78 171.89,165.25 Z" fill="rgb(1,37,24)"/>
<path d="M 357.05 345.40 C344.97,357.93 331.63,368.66 317.19,377.50 C321.76,374.61 325.99,371.58 329.80,368.43 C333.49,365.39 336.52,362.59 336.54,362.20 C336.55,361.82 337.01,360.60 337.54,359.50 C338.07,358.40 338.28,354.02 338.00,349.77 L 337.50 342.04 L 323.00 351.58 C303.31,364.53 283.65,374.00 276.42,374.00 L 273.91 374.00 L 274.05 358.40 C274.13,349.81 273.78,342.38 273.27,341.87 C272.72,341.32 269.65,341.97 265.47,343.55 C261.96,344.87 257.66,346.18 253.01,347.38 C260.51,345.26 267.59,342.45 275.50,338.56 C303.24,324.95 324.46,305.44 339.83,279.44 C342.12,275.56 344.00,272.07 344.00,271.69 C344.00,271.31 317.90,271.00 286.00,271.00 L 228.00 271.00 L 228.00 270.00 L 285.17 270.00 C316.61,270.00 342.05,269.72 341.71,269.38 C341.37,269.04 341.83,268.03 342.73,267.13 C344.24,265.62 343.40,265.48 331.64,265.22 C322.35,265.02 318.97,264.61 319.08,263.72 C319.16,263.07 319.17,251.22 319.09,237.04 C319.17,251.20 319.18,262.85 319.12,263.25 C319.05,263.66 325.49,264.00 333.43,264.00 L 347.86 264.00 L 349.82 258.75 C356.40,241.12 359.06,226.27 359.05,207.24 C359.05,191.60 357.39,179.02 353.61,165.99 C342.40,127.34 315.59,95.23 278.97,76.61 C271.78,72.95 265.09,70.03 258.51,67.75 C265.40,69.89 270.73,71.03 272.15,70.68 L 274.54 70.08 L 274.16 56.19 C273.83,43.92 273.98,42.22 275.45,41.66 C280.66,39.66 299.21,48.10 322.00,62.85 L 337.50 72.88 L 337.79 64.41 C338.00,58.12 338.39,56.11 339.29,56.63 C339.96,57.01 339.49,56.21 338.25,54.85 C337.01,53.49 336.00,51.82 336.00,51.15 C336.00,47.92 320.07,36.81 302.66,27.89 C297.97,25.49 293.16,23.30 288.24,21.30 C312.63,31.13 335.02,45.96 354.53,65.47 C385.93,96.87 405.16,135.60 411.50,180.20 C413.22,192.28 413.45,217.95 411.95,230.03 C406.48,274.10 387.65,313.68 357.05,345.40 ZM 232.20 351.51 C233.40,351.35 234.57,351.18 235.71,351.01 C233.07,351.44 230.47,351.81 228.00,352.09 C220.95,352.88 214.84,353.16 207.97,352.75 C215.79,353.06 223.64,352.64 232.20,351.51 ZM 290.10 391.35 C275.54,397.43 260.13,401.85 244.00,404.52 C259.80,401.90 275.64,397.32 290.10,391.35 ZM 241.56 63.28 C234.37,61.97 226.89,61.31 218.60,61.19 C227.30,61.24 234.29,61.86 241.56,63.28 ZM 267.82 14.38 C248.29,8.98 227.54,6.56 206.50,7.32 C227.72,6.56 248.29,8.96 267.82,14.38 ZM 212.15 315.81 C211.97,318.52 212.60,321.29 213.93,323.68 C212.40,321.23 211.87,318.84 212.15,315.81 ZM 216.14 307.35 C217.44,305.95 218.88,304.85 220.18,304.44 C219.29,304.72 217.59,305.97 216.14,307.35 ZM 176.18 347.96 C174.62,347.64 173.00,347.31 171.32,346.96 C168.20,346.31 164.53,345.10 160.55,343.47 C164.55,345.10 168.22,346.31 171.32,346.94 C172.41,347.16 174.18,347.53 176.18,347.96 ZM 194.58 62.08 C189.54,62.56 185.50,63.26 180.76,64.37 C174.12,65.93 167.73,67.88 161.52,70.26 C167.73,67.88 174.12,65.93 180.76,64.37 C185.57,63.24 189.53,62.54 194.58,62.08 Z" fill="rgb(40,132,6)"/>
<path d="M 241.56 63.28 C234.29,61.86 227.30,61.24 218.60,61.19 C215.37,61.15 212.01,61.19 208.50,61.30 C202.80,61.48 198.40,61.72 194.58,62.08 C189.53,62.54 185.57,63.24 180.76,64.37 C174.32,65.88 168.10,67.77 162.07,70.06 C166.16,68.36 170.33,66.43 171.95,65.44 L 175.40 63.34 L 175.11 48.92 C174.95,40.99 174.65,34.32 174.44,34.11 C173.27,32.92 161.25,34.26 153.00,36.50 C147.77,37.91 142.04,39.34 140.25,39.66 L 137.00 40.26 L 137.00 33.21 C137.00,28.47 137.41,26.03 138.25,25.75 C139.00,25.50 138.56,24.83 137.13,24.07 C135.82,23.37 135.03,23.24 135.36,23.78 C135.69,24.31 134.94,24.75 133.69,24.75 C128.14,24.75 108.08,36.01 92.71,47.45 C96.45,44.55 100.09,41.94 103.50,39.75 C136.58,18.48 167.58,8.72 206.50,7.32 C227.72,6.56 248.29,8.96 267.82,14.38 C274.76,16.31 281.58,18.62 288.24,21.30 L 288.24 21.31 C293.16,23.30 297.97,25.49 302.66,27.89 C320.07,36.81 336.00,47.92 336.00,51.15 C336.00,51.82 337.01,53.49 338.25,54.85 C339.49,56.21 339.96,57.01 339.29,56.63 C338.39,56.11 338.00,58.12 337.79,64.41 L 337.50 72.88 L 322.00 62.85 C299.21,48.10 280.66,39.66 275.45,41.66 C273.98,42.22 273.83,43.92 274.16,56.19 L 274.54 70.08 L 272.15 70.68 C270.73,71.03 265.40,69.89 258.51,67.75 C252.87,65.80 247.31,64.33 241.56,63.28 ZM 212.15 315.81 C212.19,315.32 212.25,314.82 212.34,314.29 C212.70,312.08 214.27,309.39 216.14,307.35 C217.59,305.97 219.29,304.72 220.18,304.44 C221.84,303.91 222.00,302.46 222.00,287.43 L 222.00 271.00 L 212.50 271.11 L 190.50 297.96 L 164.26 297.98 L 138.01 298.00 L 132.40 289.29 C129.31,284.51 126.52,279.89 126.19,279.04 C125.91,278.29 123.78,274.75 121.24,270.80 C122.24,272.27 123.36,273.96 124.62,275.89 C131.52,286.36 134.85,290.61 135.88,290.22 C136.89,289.83 137.08,290.06 136.51,290.98 C135.98,291.85 136.08,292.07 136.80,291.62 C137.41,291.24 137.66,290.28 137.35,289.47 C137.04,288.67 136.50,288.19 136.15,288.41 C135.79,288.63 135.43,287.84 135.35,286.65 C135.06,282.47 134.31,280.90 127.19,269.60 C123.38,263.55 120.24,258.28 120.01,257.56 C120.29,258.37 124.98,266.08 130.68,275.10 L 141.36 292.00 L 164.43 291.99 L 187.50 291.97 L 206.00 269.84 L 205.93 261.67 L 205.86 253.50 L 185.68 235.39 L 165.50 217.29 L 165.83 195.33 L 166.16 173.37 L 162.13 171.78 C156.86,169.71 154.01,165.10 154.00,158.63 C154.00,154.31 154.43,153.33 157.88,149.88 C161.33,146.43 162.31,146.00 166.63,146.00 C175.06,146.01 181.01,151.69 181.00,159.72 C180.99,163.18 177.91,168.35 174.55,170.56 L 172.00 172.23 L 172.00 214.87 L 191.96 232.98 L 211.91 251.10 L 212.21 257.80 L 212.50 264.50 L 237.50 264.50 L 237.50 240.61 L 217.25 222.24 L 197.00 203.86 L 197.00 148.03 L 193.70 146.65 C188.37,144.42 185.00,139.64 185.00,134.29 C185.00,125.86 190.67,120.42 199.23,120.65 C209.04,120.90 215.18,132.28 210.04,140.70 C208.97,142.45 206.95,144.64 205.55,145.56 L 203.00 147.23 L 203.03 174.37 L 203.06 201.50 L 223.50 219.81 L 243.94 238.13 L 244.22 251.31 L 244.50 264.50 L 272.50 264.50 L 273.11 210.50 L 253.50 191.50 L 233.90 172.50 L 233.29 153.19 L 232.68 133.88 L 228.86 131.93 C216.68,125.71 221.66,107.01 235.50,107.01 C247.55,107.01 253.34,120.90 244.92,129.59 C243.10,131.46 241.02,133.00 240.30,133.00 C239.29,133.00 239.00,136.11 239.01,146.75 C239.01,148.61 239.00,150.30 238.99,151.86 C238.95,159.74 238.93,164.07 240.37,167.84 C242.43,173.19 247.46,177.40 259.61,189.00 L 279.00 207.50 L 279.00 236.27 L 279.00 265.05 L 313.50 264.50 L 313.67 238.00 L 313.83 211.50 L 294.42 193.08 L 275.00 174.66 L 274.99 146.58 L 274.98 118.50 L 271.03 116.84 C260.60,112.46 260.28,97.42 270.52,92.56 C276.10,89.91 281.65,90.95 285.72,95.39 C291.65,101.86 291.35,109.14 284.91,115.08 L 281.00 118.69 L 281.02 145.60 L 281.05 172.50 L 318.92 208.50 L 319.08 235.50 C319.08,236.02 319.08,236.53 319.09,237.04 C319.17,251.22 319.16,263.07 319.08,263.72 C318.97,264.61 322.35,265.02 331.64,265.22 C343.40,265.48 344.24,265.62 342.73,267.13 C341.83,268.03 341.37,269.04 341.71,269.38 C342.05,269.72 316.61,270.00 285.17,270.00 L 228.00 270.00 L 228.00 302.91 L 231.62 304.62 C236.41,306.90 238.99,311.31 239.00,317.22 C239.01,329.39 223.38,335.18 215.57,325.90 C214.93,325.14 214.39,324.41 213.93,323.68 C212.60,321.29 211.97,318.52 212.15,315.81 ZM 190.00 405.55 C170.26,402.97 151.39,397.64 133.83,389.96 C136.56,389.83 137.33,387.79 137.10,381.59 C136.92,376.68 137.20,375.00 138.18,375.00 C138.91,375.00 143.55,376.10 148.50,377.44 C160.52,380.70 169.78,382.27 172.65,381.55 C174.99,380.96 175.00,380.89 175.00,365.60 C175.00,354.03 174.67,349.97 173.67,349.14 C173.05,348.63 169.80,347.09 165.98,345.49 C167.89,346.12 169.68,346.62 171.32,346.96 C173.00,347.31 174.62,347.64 176.18,347.96 C178.40,348.43 180.92,348.97 183.12,349.44 C191.90,351.34 199.93,352.44 207.97,352.75 C214.84,353.16 220.95,352.88 228.00,352.09 C230.47,351.81 233.07,351.44 235.71,351.01 L 235.71 351.01 C242.00,350.07 247.61,348.91 253.01,347.38 C257.66,346.18 261.96,344.87 265.47,343.55 C269.65,341.97 272.72,341.32 273.27,341.87 C273.78,342.38 274.13,349.81 274.05,358.40 L 273.91 374.00 L 276.42 374.00 C283.65,374.00 303.31,364.53 323.00,351.58 L 337.50 342.04 L 338.00 349.77 C338.28,354.02 338.07,358.40 337.54,359.50 C337.01,360.60 336.55,361.82 336.54,362.20 C336.52,362.59 333.49,365.39 329.80,368.43 C325.99,371.58 321.76,374.61 317.19,377.50 C308.54,382.80 299.50,387.42 290.10,391.35 C275.64,397.32 259.80,401.90 244.00,404.52 C230.64,406.73 203.02,407.26 190.00,405.55 ZM 280.92 110.41 C284.80,107.15 285.04,102.95 281.55,99.45 C278.55,96.45 275.13,96.32 271.63,99.07 C267.29,102.49 268.23,108.96 273.50,111.85 C276.47,113.47 277.54,113.26 280.92,110.41 ZM 201.32 140.84 C206.60,138.02 207.54,132.45 203.43,128.34 C201.36,126.27 200.25,125.90 197.68,126.39 C189.94,127.89 188.56,137.05 195.50,140.85 C198.06,142.25 198.67,142.25 201.32,140.84 ZM 231.25 321.80 C235.75,316.59 231.16,308.14 224.52,309.42 C216.69,310.93 215.70,320.97 223.09,323.90 C226.16,325.11 229.02,324.38 231.25,321.80 ZM 240.55 125.55 C245.45,120.64 242.36,113.00 235.46,113.00 C228.33,113.00 225.12,121.59 230.63,125.93 C234.13,128.68 237.55,128.55 240.55,125.55 ZM 171.89 165.25 C177.27,160.78 174.31,152.00 167.43,152.00 C160.33,152.00 157.14,160.61 162.63,164.93 C165.85,167.46 169.09,167.57 171.89,165.25 ZM 95.03 367.68 C55.75,339.00 27.43,296.82 17.58,248.00 C27.22,295.75 55.12,338.38 95.03,367.68 ZM 71.12 172.83 C68.70,183.37 67.59,194.48 67.59,207.00 C67.59,219.04 68.51,229.30 70.64,239.11 C70.13,236.92 69.66,234.74 69.26,232.56 C66.95,220.03 66.99,193.77 69.34,181.00 C69.83,178.30 70.43,175.57 71.12,172.83 ZM 95.93 120.02 C91.79,125.97 87.25,133.19 83.86,139.43 C85.99,135.31 88.30,131.32 90.75,127.50 C92.25,125.16 94.07,122.55 95.93,120.02 ZM 108.67 308.35 C111.26,310.98 114.02,313.61 116.98,316.27 C118.40,317.55 119.92,318.84 121.51,320.13 C127.26,324.77 134.00,329.38 140.85,333.46 C141.43,333.80 142.01,334.15 142.59,334.48 L 142.73 334.56 C143.23,334.85 143.73,335.14 144.23,335.42 C130.88,328.13 119.51,319.44 108.67,308.35 ZM 75.59 62.13 C67.60,69.77 59.51,78.41 54.86,84.50 C36.66,108.31 23.12,137.64 17.49,165.44 C23.12,137.65 36.64,108.35 54.86,84.50 C60.14,77.58 67.56,69.66 75.59,62.13 ZM 150.39 75.09 C139.80,80.22 129.68,86.73 119.75,94.77 C129.86,86.58 139.84,80.16 150.39,75.09 ZM 80.42 267.27 C80.91,268.34 81.43,269.41 81.96,270.50 C83.12,272.86 84.30,275.14 85.51,277.36 C83.70,274.07 82.00,270.70 80.42,267.27 ZM 96.91 294.90 C98.76,297.31 100.70,299.67 102.76,302.00 C100.75,299.74 98.79,297.37 96.91,294.90 Z" fill="rgb(94,188,18)"/>
<path d="M 121.50 384.19 C67.55,355.92 29.22,305.70 17.58,248.00 C12.01,220.35 11.98,192.70 17.49,165.44 C23.12,137.64 36.66,108.31 54.86,84.50 C62.09,75.05 77.61,59.41 88.14,50.98 C103.79,38.44 127.57,24.75 133.69,24.75 C134.94,24.75 135.69,24.31 135.36,23.78 C135.03,23.24 135.82,23.37 137.13,24.07 C138.56,24.83 139.00,25.50 138.25,25.75 C137.41,26.03 137.00,28.47 137.00,33.21 L 137.00 40.26 L 140.25 39.66 C142.04,39.34 147.77,37.91 153.00,36.50 C161.25,34.26 173.27,32.92 174.44,34.11 C174.65,34.32 174.95,40.99 175.11,48.92 L 175.40 63.34 L 171.95 65.44 C170.05,66.60 164.68,69.05 160.00,70.89 C145.79,76.49 132.88,84.14 119.75,94.77 L 113.00 100.23 L 113.00 132.60 L 113.00 164.97 L 116.33 166.37 C121.61,168.57 124.00,172.38 124.00,178.60 C124.00,183.12 123.53,184.46 120.95,187.40 C117.00,191.91 112.21,193.55 107.55,192.02 C103.15,190.57 98.29,185.05 97.45,180.56 C96.60,176.03 99.40,170.19 103.71,167.50 L 106.92 165.50 L 106.96 136.75 C106.98,120.94 106.63,108.00 106.17,108.00 C104.97,108.00 95.96,119.39 90.75,127.50 C80.39,143.63 72.66,162.92 69.34,181.00 C66.99,193.77 66.95,220.03 69.26,232.56 C73.93,257.83 86.49,283.81 102.98,302.25 C120.42,321.78 138.61,334.44 163.78,344.59 C168.49,346.48 172.94,348.53 173.67,349.14 C174.67,349.97 175.00,354.03 175.00,365.60 C175.00,380.89 174.99,380.96 172.65,381.55 C169.78,382.27 160.52,380.70 148.50,377.44 C143.55,376.10 138.91,375.00 138.18,375.00 C137.20,375.00 136.92,376.68 137.10,381.59 C137.33,388.04 136.50,389.99 133.50,389.96 C132.95,389.96 127.55,387.36 121.50,384.19 ZM 116.08 184.08 C117.82,182.33 119.00,180.10 119.00,178.53 C119.00,174.90 114.86,171.00 111.00,171.00 C107.14,171.00 103.00,174.90 103.00,178.53 C103.00,181.74 107.97,187.00 111.00,187.00 C112.18,187.00 114.47,185.68 116.08,184.08 ZM 136.51 290.98 C137.08,290.06 136.89,289.83 135.88,290.22 C134.85,290.61 131.52,286.36 124.62,275.89 C116.43,263.43 114.43,261.00 112.38,261.00 C108.49,261.00 103.63,258.54 100.74,255.11 C93.24,246.19 99.04,234.01 110.80,234.00 C119.24,234.00 124.00,238.80 124.00,247.32 C124.00,250.22 123.31,252.60 122.00,254.27 C120.90,255.67 120.00,257.12 120.00,257.50 C120.00,257.88 123.24,263.32 127.19,269.60 C134.31,280.90 135.06,282.47 135.35,286.65 C135.43,287.84 135.79,288.63 136.15,288.41 C136.50,288.19 137.04,288.67 137.35,289.47 C137.66,290.28 137.41,291.24 136.80,291.62 C136.08,292.07 135.98,291.85 136.51,290.98 ZM 116.19 251.96 C118.74,249.42 119.13,248.40 118.61,245.71 C117.73,241.12 114.41,238.67 110.02,239.38 C102.85,240.52 100.64,247.83 106.08,252.41 C110.09,255.78 112.48,255.68 116.19,251.96 Z" fill="rgb(153,230,49)"/>
</g>
</svg>